<svg width="32" height="32" viewBox="0 0 32 32" fill="none" xmlns="http://www.w3.org/2000/svg">
<g clip-path="url(#clip0_64_14354)">
<path d="M19.8325 1.54298L16.7628 0.720459L14.1759 10.3748L11.8405 1.65879L8.77075 2.48132L11.2941 11.8983L5.00908 5.61332L2.76191 7.86049L9.65575 14.7544L1.07057 12.454L0.248047 15.5236L9.62843 18.0371C9.52104 17.5739 9.46422 17.0912 9.46422 16.5953C9.46422 13.085 12.3099 10.2393 15.8202 10.2393C19.3305 10.2393 22.1762 13.085 22.1762 16.5953C22.1762 17.088 22.1201 17.5677 22.014 18.0282L30.539 20.3125L31.3615 17.2428L21.9438 14.7193L30.5296 12.4188L29.707 9.34912L20.2897 11.8724L26.5747 5.58752L24.3275 3.34035L17.5293 10.1386L19.8325 1.54298Z" fill="#ED3325"/>
<path d="M22.005 18.064C21.7418 19.1766 21.1862 20.1762 20.4238 20.9771L26.5998 27.1531L28.847 24.906L22.005 18.064Z" fill="#ED3325"/>
<path d="M20.3615 21.0416C19.5899 21.8297 18.6148 22.4178 17.5214 22.7208L19.7687 31.108L22.8384 30.2854L20.3615 21.0416Z" fill="#ED3325"/>
<path d="M17.4067 22.7515C16.8994 22.882 16.3676 22.9513 15.8197 22.9513C15.2326 22.9513 14.6641 22.8717 14.1244 22.7227L11.875 31.1174L14.9447 31.9399L17.4067 22.7515Z" fill="#ED3325"/>
<path d="M14.0158 22.6917C12.9391 22.3736 11.9813 21.778 11.2255 20.9877L5.0343 27.1789L7.28147 29.4261L14.0158 22.6917Z" fill="#ED3325"/>
<path d="M11.1745 20.9329C10.4316 20.1376 9.89051 19.1514 9.63295 18.0559L1.08008 20.3477L1.9026 23.4173L11.1745 20.9329Z" fill="#ED3325"/>
</g>
<defs>
<clipPath id="clip0_64_14354">
<rect width="32" height="32" fill="white"/>
</clipPath>
</defs>
</svg>
